<?xml version="1.0" encoding="utf-8"?>
<svg viewBox="77.3 134.3 405.3 131.5" width="200" height="65" xmlns="http://www.w3.org/2000/svg">
  <path d="M 103.4 265.7 C 102.4 265.7 101.3 265.7 100.3 265.7 C 98.1 265.7 96 265.5 93.9 265.1 C 91.9 264.8 90 264.1 88.2 263.2 C 86.4 262.3 84.8 261.1 83.4 259.7 C 82 258.3 80.8 256.7 79.9 254.9 C 79 253.1 78.4 251.2 78 249.2 C 77.6 247.1 77.5 244.9 77.4 242.8 C 77.4 242.1 77.3 239.7 77.3 239.7 L 77.3 160.3 C 77.3 160.3 77.3 157.9 77.4 157.2 C 77.4 155 77.6 152.9 78 150.8 C 78.3 148.8 79 146.9 79.9 145.1 C 80.8 143.3 82 141.7 83.4 140.3 C 84.8 138.9 86.4 137.7 88.2 136.8 C 90 135.9 91.9 135.3 93.9 134.9 C 96 134.6 98.2 134.4 100.3 134.3 L 103.4 134.3 L 456.7 134.3 L 459.8 134.3 C 461.9 134.3 464.1 134.5 466.2 134.9 C 468.2 135.2 470.1 135.9 471.9 136.8 C 475.5 138.6 478.4 141.5 480.2 145.1 C 481.1 146.9 481.7 148.8 482 150.8 C 482.4 152.9 482.6 155.1 482.6 157.3 C 482.6 158.3 482.6 159.3 482.6 160.4 C 482.6 161.7 482.6 162.9 482.6 164.2 L 482.6 236 C 482.6 237.2 482.6 238.5 482.6 239.7 C 482.6 240.8 482.6 241.8 482.6 242.9 C 482.6 245 482.4 247.2 482 249.3 C 481.7 251.3 481.1 253.2 480.1 255 C 479.2 256.8 478 258.4 476.6 259.8 C 475.2 261.2 473.6 262.4 471.8 263.3 C 470 264.2 468.1 264.9 466.1 265.2 C 464 265.5 461.8 265.7 459.7 265.8 C 458.7 265.8 457.6 265.8 456.6 265.8 L 452.9 265.8 L 103.4 265.7 Z"/>
  <text style="fill: rgb(255, 255, 255); font-family: sans-serif; font-size: 29.3px; white-space: pre; visibility: hidden;" x="194.699" y="182.065">Get it on</text>
  <text style="fill: rgb(255, 255, 255); font-family: sans-serif; font-size: 59.5px; white-space: pre; visibility: hidden;" x="191.691" y="236.131">Google Play</text>
  <g transform="matrix(1.809288, 0, 0, 1.809288, -49.099945, -32.808849)" style="visibility: hidden;">
    <linearGradient id="SVGID_1_" gradientUnits="userSpaceOnUse" x1="-201.0962" y1="174.7079" x2="-202.5499" y2="173.2543" gradientTransform="matrix(18.5185 0 0 -18.5185 3830.063 3345.0254)">
      <stop offset="0" style="stop-color:#4998D3"/>
      <stop offset="0.007" style="stop-color:#4A99D3"/>
      <stop offset="0.26" style="stop-color:#42BAEB"/>
      <stop offset="0.512" style="stop-color:#41C7F2"/>
      <stop offset="0.76" style="stop-color:#56C9E9"/>
      <stop offset="1" style="stop-color:#5BCAE8"/>
    </linearGradient>
    <path class="st2" d="M87.8,107.8c-0.5,0.5-0.6,1.3-0.6,2.2v35.5c0,1,0.3,1.8,0.8,2.2l0.2,0.2L108,128v-0.3L87.8,107.8z" style="fill: url(#SVGID_1_);"/>
    <linearGradient id="SVGID_2_" gradientUnits="userSpaceOnUse" x1="-200.0537" y1="173.7252" x2="-202.1496" y2="173.7252" gradientTransform="matrix(18.5185 0 0 -18.5185 3830.063 3345.0254)">
      <stop offset="0" style="stop-color:#FEE000"/>
      <stop offset="0.409" style="stop-color:#FEBD11"/>
      <stop offset="0.775" style="stop-color:#FAA51A"/>
      <stop offset="1" style="stop-color:#F99C1C"/>
    </linearGradient>
    <path class="st3" d="M114.4,134.7l-6.6-6.6v-0.5l6.6-6.6l0.2,0.2l7.9,4.5c2.2,1.3,2.2,3.4,0,4.7L114.4,134.7z" style="fill: url(#SVGID_2_);"/>
    <linearGradient id="SVGID_3_" gradientUnits="userSpaceOnUse" x1="-200.8346" y1="173.5317" x2="-202.8059" y2="171.5605" gradientTransform="matrix(18.5185 0 0 -18.5185 3830.063 3345.0254)">
      <stop offset="0" style="stop-color:#EF4049"/>
      <stop offset="1" style="stop-color:#C31E63"/>
    </linearGradient>
    <path class="st4" d="M114.6,134.6l-6.7-6.7l-20,20.1c0.8,0.8,1.9,0.8,3.4,0.2L114.6,134.6" style="fill: url(#SVGID_3_);"/>
    <linearGradient id="SVGID_4_" gradientUnits="userSpaceOnUse" x1="-202.3554" y1="175.4438" x2="-201.4751" y2="174.5635" gradientTransform="matrix(18.5185 0 0 -18.5185 3830.063 3345.0254)">
      <stop offset="0" style="stop-color:#32A072"/>
      <stop offset="0.069" style="stop-color:#2DA771"/>
      <stop offset="0.476" style="stop-color:#4BBA71"/>
      <stop offset="0.801" style="stop-color:#5EBD6B"/>
      <stop offset="1" style="stop-color:#66BE69"/>
    </linearGradient>
    <path class="st5" d="M114.6,121.1l-23.4-13.3c-1.4-0.8-2.6-0.6-3.4,0.2l20,19.9L114.6,121.1L114.6,121.1z" style="fill: url(#SVGID_4_);"/>
    <path class="st6" d="M114.4,134.4l-23.3,13.1c-1.3,0.8-2.4,0.6-3.2,0l-0.2,0.2l0.2,0.2c0.8,0.6,1.9,0.8,3.2,0L114.4,134.4z" style="fill: rgb(1, 1, 1); opacity: 0.2;"/>
    <path class="st7" d="M87.8,147.5c-0.5-0.5-0.6-1.3-0.6-2.2v0.2c0,1,0.3,1.8,0.8,2.2v-0.2H87.8L87.8,147.5z M122.4,129.9l-8,4.5 l0.2,0.2l7.9-4.5c1.1-0.6,1.6-1.4,1.6-2.3C124,128.6,123.4,129.3,122.4,129.9z" style="fill: rgb(1, 1, 1); opacity: 0.12;"/>
    <path class="st8" d="M91.2,107.9l31.3,17.8c1,0.6,1.6,1.3,1.6,2.1c0-0.8-0.5-1.6-1.6-2.2l-31.3-17.8c-2.2-1.3-4-0.3-4,2.2v0.2 C87.1,107.8,88.9,106.6,91.2,107.9z" style="fill: rgb(255, 255, 255); opacity: 0.25;"/>
  </g>
  <linearGradient id="gradient-1" gradientUnits="userSpaceOnUse" x1="1682.1077" y1="1339.4783" x2="1624.2924" y2="1309.6345" gradientTransform="matrix(0.828004, 0, 0, -1.604078, -1250.408569, 2315.366211)">
    <stop offset="0" style="stop-color:#00A0FF"/>
    <stop offset="0.0066" style="stop-color:#00A1FF"/>
    <stop offset="0.2601" style="stop-color:#00BEFF"/>
    <stop offset="0.5122" style="stop-color:#00D2FF"/>
    <stop offset="0.7604" style="stop-color:#00DFFF"/>
    <stop offset="1" style="stop-color:#00E3FF"/>
  </linearGradient>
  <linearGradient id="gradient-2" gradientUnits="userSpaceOnUse" x1="1712.6624" y1="1274.8376" x2="1606.5613" y2="1274.8376" gradientTransform="matrix(0.650524, 0, 0, -0.547733, -937.413452, 897.224426)">
    <stop offset="0" style="stop-color:#FFE000"/>
    <stop offset="0.4087" style="stop-color:#FFBD00"/>
    <stop offset="0.7754" style="stop-color:#FFA500"/>
    <stop offset="1" style="stop-color:#FF9C00"/>
  </linearGradient>
  <linearGradient id="gradient-3" gradientUnits="userSpaceOnUse" x1="1707.4414" y1="1290.0475" x2="1646.682" y2="1211.2225" gradientTransform="matrix(1.068438, 0, 0, -0.823558, -1673.275879, 1267.933594)">
    <stop offset="0" style="stop-color:#FF3A44"/>
    <stop offset="1" style="stop-color:#C31162"/>
  </linearGradient>
  <linearGradient id="gradient-4" gradientUnits="userSpaceOnUse" x1="1660.6357" y1="1365.6676" x2="1687.767" y2="1330.4501" gradientTransform="matrix(1.068438, 0, 0, -0.823131, -1673.275879, 1266.535156)">
    <stop offset="0" style="stop-color:#32A071"/>
    <stop offset="0.0685" style="stop-color:#2DA771"/>
    <stop offset="0.4762" style="stop-color:#15CF74"/>
    <stop offset="0.8009" style="stop-color:#06E775"/>
    <stop offset="1" style="stop-color:#00F076"/>
  </linearGradient>
  <g>
    <path class="st2" d="M 283.902 179.645 C 281.321 179.645 279.143 178.741 277.422 176.963 C 275.714 175.235 274.762 172.851 274.804 170.419 C 274.804 167.822 275.686 165.624 277.422 163.881 C 279.136 162.104 281.313 161.2 283.895 161.2 C 286.449 161.2 288.625 162.104 290.376 163.881 C 292.111 165.682 292.993 167.88 292.993 170.419 C 292.965 173.023 292.082 175.221 290.376 176.956 C 288.66 178.749 286.484 179.645 283.902 179.645 Z M 207.07 179.645 C 204.544 179.645 202.354 178.756 200.561 176.999 C 198.783 175.249 197.88 173.036 197.88 170.426 C 197.88 167.816 198.783 165.603 200.561 163.853 C 202.318 162.096 204.509 161.207 207.07 161.207 C 208.322 161.207 209.538 161.457 210.705 161.961 C 211.851 162.452 212.782 163.12 213.471 163.939 L 213.643 164.145 L 211.715 166.037 L 211.516 165.803 C 210.427 164.507 208.969 163.875 207.042 163.875 C 205.32 163.875 203.82 164.487 202.581 165.696 C 201.337 166.912 200.703 168.505 200.703 170.433 C 200.703 172.362 201.337 173.954 202.581 175.171 C 203.82 176.38 205.32 176.992 207.042 176.992 C 208.877 176.992 210.42 176.38 211.623 175.171 C 212.334 174.46 212.775 173.464 212.932 172.205 L 206.75 172.205 L 206.75 169.544 L 215.584 169.544 L 215.62 169.786 C 215.685 170.234 215.748 170.696 215.748 171.123 C 215.748 173.577 215.008 175.562 213.543 177.028 C 211.879 178.763 209.702 179.645 207.07 179.645 Z M 309.226 179.269 L 306.501 179.269 L 298.157 165.916 L 298.228 168.321 L 298.228 179.261 L 295.504 179.261 L 295.504 161.585 L 298.613 161.585 L 298.698 161.72 L 306.544 174.297 L 306.473 171.899 L 306.473 161.585 L 309.226 161.585 L 309.226 179.269 Z M 263.43 179.269 L 260.669 179.269 L 260.669 164.244 L 255.882 164.244 L 255.882 161.585 L 268.21 161.585 L 268.21 164.244 L 263.423 164.244 L 263.423 179.269 L 263.43 179.269 Z M 253.634 179.269 L 250.881 179.269 L 250.881 161.585 L 253.634 161.585 L 253.634 179.269 Z M 238.162 179.269 L 235.41 179.269 L 235.41 164.244 L 230.623 164.244 L 230.623 161.585 L 242.95 161.585 L 242.95 164.244 L 238.162 164.244 L 238.162 179.269 Z M 228.879 179.241 L 218.323 179.241 L 218.323 161.585 L 228.879 161.585 L 228.879 164.244 L 221.083 164.244 L 221.083 169.097 L 228.118 169.097 L 228.118 171.728 L 221.083 171.728 L 221.083 176.579 L 228.879 176.579 L 228.879 179.241 Z M 279.442 175.136 C 280.673 176.367 282.166 176.984 283.902 176.984 C 285.688 176.984 287.145 176.38 288.362 175.136 C 289.571 173.926 290.183 172.34 290.183 170.426 C 290.183 168.512 289.571 166.92 288.369 165.718 C 287.138 164.487 285.638 163.868 283.91 163.868 C 282.123 163.868 280.666 164.472 279.456 165.718 C 278.247 166.927 277.635 168.512 277.635 170.426 C 277.635 172.34 278.24 173.933 279.442 175.136 Z" style="fill: rgb(255, 255, 255);"/>
    <path class="st3" d="M 274.548 203.959 C 267.826 203.959 262.377 209.059 262.377 216.094 C 262.377 223.066 267.861 228.23 274.548 228.23 C 281.27 228.23 286.719 223.095 286.719 216.094 C 286.719 209.059 281.27 203.959 274.548 203.959 Z M 274.548 223.421 C 270.87 223.421 267.704 220.377 267.704 216.066 C 267.704 211.691 270.878 208.711 274.548 208.711 C 278.225 208.711 281.39 211.691 281.39 216.066 C 281.398 220.405 278.225 223.421 274.548 223.421 Z M 247.994 203.959 C 241.272 203.959 235.823 209.059 235.823 216.094 C 235.823 223.066 241.306 228.23 247.994 228.23 C 254.716 228.23 260.164 223.095 260.164 216.094 C 260.164 209.059 254.709 203.959 247.994 203.959 Z M 247.994 223.421 C 244.315 223.421 241.15 220.377 241.15 216.066 C 241.15 211.691 244.323 208.711 247.994 208.711 C 251.671 208.711 254.836 211.691 254.836 216.066 C 254.836 220.405 251.671 223.421 247.994 223.421 Z M 216.395 207.665 L 216.395 212.8 L 228.723 212.8 C 228.346 215.681 227.393 217.809 225.935 219.267 C 224.128 221.074 221.339 223.037 216.424 223.037 C 208.849 223.037 202.922 216.92 202.922 209.344 C 202.922 201.769 208.849 195.651 216.424 195.651 C 220.515 195.651 223.496 197.265 225.707 199.328 L 229.349 195.686 C 226.276 192.742 222.186 190.486 216.452 190.486 C 206.059 190.486 197.339 198.951 197.339 209.316 C 197.339 219.708 206.053 228.145 216.452 228.145 C 222.065 228.145 226.276 226.309 229.605 222.852 C 232.998 219.459 234.072 214.672 234.072 210.809 C 234.072 209.607 233.98 208.526 233.788 207.608 L 216.389 207.608 C 216.395 207.6 216.395 207.665 216.395 207.665 Z M 345.639 211.663 C 344.622 208.939 341.55 203.93 335.247 203.93 C 329.001 203.93 323.809 208.846 323.809 216.066 C 323.809 222.88 328.944 228.202 335.852 228.202 C 341.4 228.202 344.629 224.808 345.959 222.817 L 341.841 220.057 C 340.475 222.084 338.576 223.414 335.88 223.414 C 333.156 223.414 331.249 222.177 329.983 219.736 L 346.208 213.014 C 346.208 213.022 345.639 211.663 345.639 211.663 Z M 329.094 215.718 C 328.966 211.029 332.736 208.646 335.432 208.646 C 337.558 208.646 339.33 209.692 339.934 211.215 L 329.094 215.718 Z M 315.913 227.476 L 321.24 227.476 L 321.24 191.823 L 315.913 191.823 L 315.913 227.476 Z M 307.163 206.654 L 306.971 206.654 C 305.769 205.226 303.486 203.93 300.568 203.93 C 294.515 203.93 288.938 209.259 288.938 216.101 C 288.938 222.916 294.487 228.18 300.568 228.18 C 303.449 228.18 305.769 226.878 306.971 225.421 L 307.163 225.421 L 307.163 227.163 C 307.163 231.794 304.688 234.291 300.696 234.291 C 297.431 234.291 295.405 231.943 294.579 229.98 L 289.948 231.915 C 291.278 235.116 294.828 239.077 300.69 239.077 C 306.936 239.077 312.228 235.401 312.228 226.43 L 312.228 204.657 L 307.191 204.657 L 307.191 206.654 C 307.199 206.654 307.163 206.654 307.163 206.654 Z M 301.046 223.421 C 297.368 223.421 294.295 220.349 294.295 216.101 C 294.295 211.82 297.368 208.718 301.046 208.718 C 304.688 208.718 307.512 211.855 307.512 216.101 C 307.547 220.349 304.695 223.421 301.046 223.421 Z M 370.586 191.823 L 357.845 191.823 L 357.845 227.476 L 363.174 227.476 L 363.174 213.975 L 370.594 213.975 C 376.491 213.975 382.288 209.7 382.288 202.913 C 382.288 196.127 376.512 191.823 370.586 191.823 Z M 370.743 208.995 L 363.167 208.995 L 363.167 196.76 L 370.743 196.76 C 374.734 196.76 376.988 200.054 376.988 202.878 C 376.988 205.673 374.705 208.995 370.743 208.995 Z M 403.642 203.895 C 399.773 203.895 395.782 205.609 394.132 209.344 L 398.855 211.307 C 399.873 209.344 401.736 208.676 403.706 208.676 C 406.467 208.676 409.254 210.326 409.319 213.271 L 409.319 213.648 C 408.366 213.107 406.274 212.281 403.77 212.281 C 398.67 212.281 393.498 215.07 393.498 220.299 C 393.498 225.086 397.682 228.159 402.341 228.159 C 405.919 228.159 407.889 226.544 409.119 224.673 L 409.313 224.673 L 409.313 227.433 L 414.448 227.433 L 414.448 213.775 C 414.448 207.416 409.724 203.895 403.642 203.895 Z M 402.973 223.421 C 401.232 223.421 398.791 222.569 398.791 220.377 C 398.791 217.617 401.836 216.571 404.432 216.571 C 406.779 216.571 407.889 217.077 409.283 217.773 C 408.9 220.975 406.196 223.393 402.973 223.421 Z M 433.184 204.657 L 427.067 220.121 L 426.875 220.121 L 420.537 204.657 L 414.803 204.657 L 424.314 226.274 L 418.894 238.288 L 424.442 238.288 L 439.074 204.657 C 439.074 204.657 433.184 204.657 433.184 204.657 Z M 385.226 227.476 L 390.554 227.476 L 390.554 191.823 L 385.226 191.823 L 385.226 227.476 Z" style="clip-rule: evenodd; fill: rgb(255, 255, 255); fill-rule: evenodd;"/>
    <path class="st4" d="M 109.964 163.391 C 109.139 164.28 108.663 165.639 108.663 167.417 L 108.663 230.492 C 108.663 232.27 109.139 233.629 109.994 234.483 L 110.213 234.674 L 145.554 199.336 L 145.554 198.545 L 110.185 163.199 C 110.185 163.199 109.964 163.391 109.964 163.391 Z" style="clip-rule: evenodd; fill-rule: evenodd; fill: url(#gradient-1);"/>
    <path class="st5" d="M 157.312 211.15 L 145.525 199.364 L 145.525 198.538 L 157.312 186.752 L 157.568 186.909 L 171.51 194.832 C 175.501 197.08 175.501 200.793 171.51 203.069 L 157.568 210.994 C 157.568 210.994 157.312 211.15 157.312 211.15 Z" style="clip-rule: evenodd; fill-rule: evenodd; fill: url(#gradient-2);"/>
    <path class="st6" d="M 157.568 210.994 L 145.525 198.951 L 109.964 234.511 C 111.266 235.905 113.45 236.062 115.89 234.703 L 157.568 210.994" style="clip-rule: evenodd; fill-rule: evenodd; fill: url(#gradient-3);"/>
    <path class="st7" d="M 157.568 186.909 L 115.89 163.235 C 113.45 161.84 111.259 162.033 109.964 163.426 L 145.525 198.951 L 157.568 186.909 Z" style="clip-rule: evenodd; fill-rule: evenodd; fill: url(#gradient-4);"/>
    <path class="st8" d="M 157.312 210.738 L 115.918 234.255 C 113.607 235.585 111.544 235.492 110.213 234.283 L 109.994 234.504 L 110.213 234.696 C 111.544 235.898 113.607 235.998 115.918 234.667 L 157.596 210.994 C 157.596 210.994 157.312 210.738 157.312 210.738 Z" style="clip-rule: evenodd; fill-rule: evenodd; opacity: 0.2;"/>
    <path class="st9" d="M 171.51 202.658 L 157.276 210.738 L 157.531 210.994 L 171.474 203.069 C 173.473 201.932 174.455 200.438 174.455 198.951 C 174.334 200.317 173.317 201.612 171.51 202.658 Z" style="clip-rule: evenodd; fill-rule: evenodd; opacity: 0.12;"/>
  </g>
</svg>