<?xml version="1.0" encoding="utf-8"?>
<svg viewBox="77.3 134.3 405.3 131.5" width="c" height="65" xmlns="http://www.w3.org/2000/svg">
  <path d="M 103.4 265.7 C 102.4 265.7 101.3 265.7 100.3 265.7 C 98.1 265.7 96 265.5 93.9 265.1 C 91.9 264.8 90 264.1 88.2 263.2 C 86.4 262.3 84.8 261.1 83.4 259.7 C 82 258.3 80.8 256.7 79.9 254.9 C 79 253.1 78.4 251.2 78 249.2 C 77.6 247.1 77.5 244.9 77.4 242.8 C 77.4 242.1 77.3 239.7 77.3 239.7 L 77.3 160.3 C 77.3 160.3 77.3 157.9 77.4 157.2 C 77.4 155 77.6 152.9 78 150.8 C 78.3 148.8 79 146.9 79.9 145.1 C 80.8 143.3 82 141.7 83.4 140.3 C 84.8 138.9 86.4 137.7 88.2 136.8 C 90 135.9 91.9 135.3 93.9 134.9 C 96 134.6 98.2 134.4 100.3 134.3 L 103.4 134.3 L 456.7 134.3 L 459.8 134.3 C 461.9 134.3 464.1 134.5 466.2 134.9 C 468.2 135.2 470.1 135.9 471.9 136.8 C 475.5 138.6 478.4 141.5 480.2 145.1 C 481.1 146.9 481.7 148.8 482 150.8 C 482.4 152.9 482.6 155.1 482.6 157.3 C 482.6 158.3 482.6 159.3 482.6 160.4 C 482.6 161.7 482.6 162.9 482.6 164.2 L 482.6 236 C 482.6 237.2 482.6 238.5 482.6 239.7 C 482.6 240.8 482.6 241.8 482.6 242.9 C 482.6 245 482.4 247.2 482 249.3 C 481.7 251.3 481.1 253.2 480.1 255 C 479.2 256.8 478 258.4 476.6 259.8 C 475.2 261.2 473.6 262.4 471.8 263.3 C 470 264.2 468.1 264.9 466.1 265.2 C 464 265.5 461.8 265.7 459.7 265.8 C 458.7 265.8 457.6 265.8 456.6 265.8 L 452.9 265.8 L 103.4 265.7 Z" />
  <path d="M 159.5 201 C 159.6 195.2 162.6 189.8 167.6 186.7 C 164.5 182.2 159.4 179.5 153.9 179.3 C 148.1 178.7 142.5 182.8 139.6 182.8 C 136.6 182.8 132.1 179.4 127.2 179.5 C 120.8 179.7 114.9 183.3 111.8 188.9 C 105.2 200.4 110.1 217.3 116.5 226.6 C 119.7 231.2 123.4 236.2 128.3 236.1 C 133.1 235.9 134.8 233.1 140.6 233.1 C 146.3 233.1 148 236.1 152.9 236 C 158 235.9 161.2 231.4 164.3 226.8 C 166.6 223.6 168.4 220 169.5 216.2 C 163.4 213.6 159.5 207.6 159.5 201 Z" style="fill: rgb(255, 255, 255);"/>
  <path d="M 150.1 173.2 C 152.9 169.9 154.3 165.5 153.9 161.2 C 149.6 161.6 145.7 163.7 142.9 166.9 C 140.1 170.1 138.7 174.2 139 178.5 C 143.3 178.5 147.4 176.6 150.1 173.2 Z" style="fill: rgb(255, 255, 255);"/>
  <text style="fill: rgb(255, 255, 255); font-family: sans-serif; font-size: 29.3px; white-space: pre;" x="194.699" y="182.065">Download on the</text>
  <text style="fill: rgb(255, 255, 255); font-family: sans-serif; font-size: 59.5px; white-space: pre;" x="191.691" y="236.131">App Store</text>
</svg>