<?xml version="1.0" encoding="utf-8"?>
<svg viewBox="0 0 398.876 816.928" width="398.876" height="816.928" xmlns="http://www.w3.org/2000/svg">
  <path d="M 62.412 0 L 336.466 0 C 370.935 0 398.876 27.941 398.876 62.412 L 398.876 754.519 C 398.876 788.987 370.935 816.928 336.466 816.928 L 62.412 816.928 C 27.941 816.928 0 788.987 0 754.519 L 0 62.412 C 0 27.941 27.941 0 62.412 0 Z M 15.768 62.532 L 15.768 754.394 C 15.768 783.741 39.562 807.536 68.911 807.536 L 332.629 807.536 C 361.978 807.536 385.775 783.741 385.775 754.394 L 385.775 62.532 C 385.775 33.182 361.978 9.387 332.629 9.387 L 68.911 9.387 C 39.562 9.387 15.768 33.182 15.768 62.532 Z" stroke="#12284a" stroke-width=".265" stroke-linecap="round" stroke-linejoin="round" fill="#405777" style=""/>
  <path d="M 335.415 5.15 C 367.942 5.076 394.324 31.457 394.252 63.98 L 394.252 752.943 C 394.252 785.541 368.012 811.778 335.415 811.778 L 63.46 811.778 C 30.94 811.85 4.554 785.462 4.626 752.943 L 4.626 63.98 C 4.626 31.385 30.867 5.15 63.46 5.15 L 335.415 5.15 Z M 61.891 18.091 C 38.294 18.091 19.168 37.216 19.168 60.813 L 19.168 756.105 C 19.168 779.706 38.294 798.834 61.891 798.834 L 336.983 798.834 C 360.584 798.834 379.712 779.706 379.712 756.105 L 379.712 60.813 C 379.712 37.216 360.58 18.091 336.983 18.091 L 61.891 18.091 Z" stroke="#434343" stroke-width=".5" style=""/>
  <rect style="" x="125.629" y="776.305" width="148.18" height="10.461" rx="5.231" ry="5.231"/>
</svg>